# xmcd
#
# Track frame offsets: 
#        150
#        13967
#        25778
#        38137
#        51892
#        64016
#        77211
#        87244
#        101149
#        114187
#        127543
#        138507
#        151521
#        162860
#        174605
#        186050
#        200346
#        210719
#        220871
#        232827
#        253342
#        273994
#
# Disc length: 3920 seconds
#
# Revision: 2
# Processed by: cddbd v1.5.2PL0 Copyright (c) Steve Scherf et al.
# Submitted via: ExactAudioCopyFreeDBPlugin 1.0
#
DISCID=240f4e16
DTITLE=Various Artist - Swing Time 087 - All-Star Groups 02 - 1937-39
DYEAR=1937
DGENRE=Jazz
TTITLE0=Mildred Bailey And Her Orchestra - If You Ever Should Leave Me
TTITLE1=Mildred Bailey And Her Orchestra - The Moon Got In My Eyes
TTITLE2=Mildred Bailey And Her Orchestra - Heaven Help This Heart Of M
TTITLE2=ine
TTITLE3=Mildred Bailey And Her Orchestra - It's The Natural Thing To D
TTITLE3=o
TTITLE4=Dicky Wells And His Orchestra - Bugle Call Rag
TTITLE5=Dicky Wells And His Orchestra - Between The Devil And The Deep
TTITLE5=Blue Sea
TTITLE6=Dicky Wells And His Orchestra - I Got Rhythm
TTITLE7=Dicky Wells And His Orchestra - Sweet Sue
TTITLE8=Dicky Wells And His Orchestra - Hangin' Around Boudon
TTITLE9=Dicky Wells And His Orchestra - Japanese Sandman
TTITLE10=All Star Jam Band - For He's A Jolly Good Fellow
TTITLE11=All Star Jam Band - Jammin' The Waltz
TTITLE12=All Star Jam Band - Let's Get Happy
TTITLE13=All Star Jam Band - Clementine
TTITLE14=Timme Rosenkrantz And His Barrelhouse Barons - A Wee Bit Of S
TTITLE14=wing
TTITLE15=Timme Rosenkrantz And His Barrelhouse Barons - Is This To Be 
TTITLE15=My Souvenir
TTITLE16=Timme Rosenkrantz And His Barrelhouse Barons - When Day Is Do
TTITLE16=ne
TTITLE17=Timme Rosenkrantz And His Barrelhouse Barons - The Song Is En
TTITLE17=ded
TTITLE18=Frank Newton Quintet - Daybreak Blues
TTITLE19=Port Of Harlem Jazzmen - Port Of Harlem Blues
TTITLE20=Port Of Harlem Jazzmen - Mighty Blues
TTITLE21=Port Of Harlem Jazzmen - Rockin' The Blues
EXTD=YEAR: 2006
EXTT0=
EXTT1=
EXTT2=
EXTT3=
EXTT4=
EXTT5=
EXTT6=
EXTT7=
EXTT8=
EXTT9=
EXTT10=
EXTT11=
EXTT12=
EXTT13=
EXTT14=
EXTT15=
EXTT16=
EXTT17=
EXTT18=
EXTT19=
EXTT20=
EXTT21=
PLAYORDER=
